<svg width="4399" height="1415" xmlns="http://www.w3.org/2000/svg" xmlns:xlink="http://www.w3.org/1999/xlink" xml:space="preserve" overflow="hidden"><defs><clipPath id="clip0"><rect x="0" y="997" width="4399" height="1415"/></clipPath></defs><g clip-path="url(#clip0)" transform="matrix(1 0 0 1 0 -997)"><path d="M1697.03 506.699C1681.72 506.699 1669.21 520.849 1669.21 538.127L1669.21 1051 1734.56 1051 1741.85 1045.43C1745.18 1043.84 1748.83 1042.95 1752.65 1042.95 1756.48 1042.95 1760.13 1043.84 1763.45 1045.43L1770.75 1051 1836.11 1051 1836.11 544.72C1836.11 527.423 1823.6 513.279 1808.29 513.279 1792.99 513.279 1780.48 527.423 1780.48 544.72L1780.48 701.03C1780.48 718.317 1767.95 732.465 1752.65 732.465 1737.36 732.465 1724.83 718.317 1724.83 701.03L1724.83 538.127C1724.83 520.849 1712.33 506.699 1697.03 506.699ZM3476.91 310.57C3461.62 310.57 3449.1 324.722 3449.1 342.013L3449.1 1051 3504.72 1051 3504.72 968.541C3504.72 951.246 3517.24 937.102 3532.55 937.102 3547.86 937.102 3560.36 951.246 3560.36 968.541L3560.36 1051 3616 1051 3616 431.341C3616 414.034 3603.49 399.897 3588.19 399.897 3572.89 399.897 3560.36 414.036 3560.36 431.341L3560.36 479.046C3560.36 496.341 3547.86 510.499 3532.55 510.499 3517.24 510.499 3504.72 496.341 3504.72 479.046L3504.72 342.013C3504.72 324.725 3492.22 310.57 3476.91 310.57ZM27.8238 247.439C12.519 247.439 0 261.583 0 278.882L0 1051 166.92 1051 166.92 978.132C166.92 960.837 179.443 946.694 194.737 946.694 210.032 946.694 222.561 960.837 222.561 978.132L222.561 1025.85 222.583 1025.97 222.583 1051 280.22 1051 280.407 1049.96C284.646 1038.69 294.558 1030.73 306.029 1030.73 317.5 1030.73 327.415 1038.69 331.656 1049.96L331.843 1051 389.481 1051 389.481 532.498C389.481 515.201 376.973 501.057 361.662 501.057 346.367 501.057 333.85 515.201 333.85 532.498L333.85 688.809C333.85 706.095 321.321 720.243 306.027 720.243 290.732 720.243 278.209 706.095 278.209 688.809L278.209 525.905 278.19 525.795 278.19 448.461C278.19 431.164 265.681 417.02 250.37 417.02 235.076 417.02 222.559 431.164 222.559 448.461L222.559 604.771C222.559 622.058 210.03 636.206 194.735 636.206 179.441 636.206 166.918 622.058 166.918 604.771L166.918 441.868C166.918 424.59 154.415 410.44 139.115 410.44 123.806 410.44 111.291 424.59 111.291 441.868L111.291 616.44 111.262 616.604 111.262 752.679C111.262 769.98 98.7528 784.118 83.4544 784.118 68.1496 784.118 55.6306 769.98 55.6306 752.679L55.6306 278.882C55.6306 261.581 43.1182 247.439 27.8238 247.439ZM2699.11 212.39C2683.8 212.39 2671.28 226.533 2671.28 243.832L2671.28 1051 2838.19 1051 2838.19 964.519 2840.29 952.821C2844.53 941.547 2854.44 933.591 2865.91 933.591 2881.21 933.591 2893.74 947.735 2893.74 965.03L2893.74 1012.75C2893.74 1030.04 2906.25 1044.18 2921.55 1044.18 2936.86 1044.18 2949.37 1030.03 2949.37 1012.74L2949.37 435.359C2949.37 418.062 2936.86 403.918 2921.55 403.918 2906.25 403.918 2893.74 418.062 2893.74 435.359L2893.74 591.669C2893.74 608.956 2881.21 623.104 2865.91 623.104 2854.44 623.104 2844.53 615.145 2840.29 603.874L2838.19 592.192 2838.19 581.555 2838.09 581.031 2838.09 428.766C2838.09 411.488 2825.59 397.338 2810.29 397.338 2794.98 397.338 2782.47 411.488 2782.47 428.766L2782.47 718.05 2780.35 729.841C2776.11 741.115 2766.21 749.068 2754.74 749.068 2739.43 749.068 2726.91 734.93 2726.91 717.629L2726.91 243.832C2726.91 226.531 2714.4 212.39 2699.11 212.39ZM1474.06 129.692C1458.77 129.692 1446.26 143.833 1446.26 161.134L1446.26 634.932C1446.26 652.232 1433.74 666.37 1418.43 666.37 1403.14 666.37 1390.63 652.232 1390.63 634.932L1390.63 498.857C1390.63 481.549 1378.1 467.408 1362.8 467.408 1347.5 467.408 1334.98 481.552 1334.98 498.857L1334.98 525.467 1334.25 529.522 1334.25 577.227C1334.25 594.521 1321.75 608.679 1306.45 608.679 1291.14 608.679 1278.62 594.521 1278.62 577.227L1278.62 440.194C1278.62 422.905 1266.11 408.751 1250.81 408.751 1235.51 408.751 1222.99 422.903 1222.99 440.194L1222.99 1051 1282.91 1051 1286.79 1044.52C1291.83 1038.82 1298.79 1035.28 1306.45 1035.28 1314.1 1035.28 1321.05 1038.82 1326.09 1044.52L1329.96 1051 1501.89 1051 1501.89 161.134C1501.89 143.835 1489.37 129.692 1474.06 129.692ZM3255.42 101.958C3240.13 101.958 3227.62 116.1 3227.62 133.401L3227.62 607.198C3227.62 624.499 3215.1 638.636 3199.79 638.636 3188.32 638.636 3178.41 630.684 3174.18 619.409L3172.12 607.974 3172.12 483.634 3171.98 482.859 3171.98 471.123C3171.98 453.816 3159.46 439.674 3144.16 439.674 3128.86 439.674 3116.34 453.818 3116.34 471.123L3116.34 621.527 3114.3 632.878C3110.06 644.151 3100.15 652.11 3088.68 652.11 3073.38 652.11 3060.86 637.96 3060.86 620.672L3060.86 572.951C3060.86 555.662 3048.34 541.518 3033.04 541.518 3017.73 541.518 3005.22 555.66 3005.22 572.951L3005.22 1051 3060.86 1051 3060.86 994.031C3060.86 976.746 3073.38 962.59 3088.68 962.59 3100.15 962.59 3110.06 970.553 3114.3 981.826L3116.34 993.175 3116.34 1051 3394.58 1051 3394.58 628.099C3394.58 610.802 3382.08 596.659 3366.76 596.659 3351.47 596.659 3338.95 610.802 3338.95 628.099L3338.95 784.41C3338.95 801.696 3326.42 815.844 3311.13 815.844 3295.83 815.844 3283.31 801.696 3283.31 784.41L3283.31 621.506 3283.25 621.146 3283.25 133.401C3283.25 116.102 3270.73 101.958 3255.42 101.958ZM2141.59 96.4824C2126.29 96.4824 2113.77 110.626 2113.77 127.925L2113.77 333.351 2113.26 336.165 2113.26 473.202C2113.26 490.491 2100.74 504.64 2085.45 504.64 2070.15 504.64 2057.63 490.491 2057.63 473.202L2057.63 425.481C2057.63 408.192 2045.11 394.048 2029.81 394.048 2014.51 394.048 2001.99 408.19 2001.99 425.481L2001.99 1002.86C2001.99 1020.17 2014.51 1034.31 2029.81 1034.31 2045.11 1034.31 2057.63 1020.17 2057.63 1002.86L2057.63 913.543 2057.63 846.561C2057.63 829.276 2070.15 815.12 2085.45 815.12 2100.74 815.12 2113.26 829.276 2113.26 846.561L2113.26 1009.46 2113.77 1012.27 2113.77 1051 2280.68 1051 2280.68 465.647C2280.68 448.342 2268.15 434.199 2252.85 434.199 2237.55 434.199 2225.03 448.34 2225.03 465.647L2225.03 601.722C2225.03 619.023 2212.52 633.161 2197.22 633.161 2181.92 633.161 2169.4 619.023 2169.4 601.722L2169.4 127.925C2169.4 110.624 2156.89 96.4824 2141.59 96.4824ZM806.22 40.5787C790.925 40.5787 778.413 54.7202 778.413 72.0214L778.413 545.818C778.413 563.119 765.894 577.257 750.589 577.257 735.291 577.257 722.782 563.119 722.782 545.818L722.782 409.744C722.782 392.436 710.259 378.295 694.958 378.295 679.66 378.295 667.137 392.439 667.137 409.744L667.137 711.12 665.641 719.448C661.405 730.723 651.501 738.675 640.027 738.675 624.722 738.675 612.203 724.538 612.203 707.237L612.203 233.44C612.203 216.139 599.691 201.997 584.396 201.997 569.091 201.997 556.573 216.141 556.573 233.44L556.573 1051 723.479 1051 723.479 1031.43 724.975 1023.1C729.21 1011.82 739.115 1003.86 750.589 1003.86 762.068 1003.86 771.979 1011.82 776.217 1023.1L778.16 1033.91 778.16 1051 945.062 1051 945.062 1049.34 946.562 1041C950.801 1029.73 960.713 1021.77 972.184 1021.77 983.655 1021.77 993.57 1029.73 997.811 1041L999.609 1051 1055.64 1051 1055.64 523.541C1055.64 506.244 1043.13 492.1 1027.82 492.1 1012.52 492.1 1000.01 506.244 1000.01 523.541L1000.01 679.852C1000.01 697.138 987.476 711.286 972.182 711.286 960.711 711.286 950.799 703.328 946.56 692.056L945.062 683.732 945.062 589.264 944.364 585.379 944.364 516.948C944.364 499.67 931.862 485.52 916.561 485.52 901.252 485.52 888.738 499.67 888.738 516.948L888.738 730.16 887.236 738.507C882.997 749.78 873.085 757.739 861.614 757.739 850.143 757.739 840.232 749.78 835.992 738.507L834.043 727.671 834.043 72.0214C834.043 54.7224 821.524 40.5787 806.22 40.5787ZM2587.4 0C2572.11 0 2559.59 14.1415 2559.59 31.4427L2559.59 505.24C2559.59 522.541 2547.08 536.678 2531.77 536.678 2516.47 536.678 2503.96 522.541 2503.96 505.24L2503.96 369.165C2503.96 351.858 2491.44 337.716 2476.14 337.716 2460.84 337.716 2448.32 351.86 2448.32 369.165L2448.32 1042.44 2449.86 1051 2502.43 1051 2503.96 1042.44 2503.96 994.738C2503.96 977.438 2516.47 963.283 2531.77 963.283 2547.08 963.283 2559.59 977.438 2559.59 994.738L2559.59 1051 2615.23 1051 2615.23 31.4427C2615.23 14.1437 2602.71 0 2587.4 0Z" fill="#000075" fill-rule="evenodd" transform="matrix(-1 0 0 1 4066 1102)"/><path d="M4055.17 2121.82C4138.3 2121.82 4205.69 2189.25 4205.69 2272.45 4205.69 2274.88 4205.62 2277.28 4205.51 2279.67 4250.75 2289.97 4286.49 2325.21 4297.52 2370.2 4305.74 2367.61 4314.47 2366.18 4323.55 2366.18 4337.82 2366.18 4351.24 2369.69 4363.08 2375.85L4363.17 2375.85 4363.17 2375.89C4378.31 2383.77 4390.8 2396.04 4399 2411L3727.13 2411C3738.02 2375.97 3770.67 2350.53 3809.27 2350.53 3811.21 2350.53 3813.11 2350.69 3815.02 2350.82 3811.29 2339.07 3809.27 2326.54 3809.27 2313.55 3809.27 2246.72 3862.52 2192.36 3928.87 2190.57 3955.7 2149.21 4002.23 2121.82 4055.17 2121.82ZM452.087 2012.48C566.643 2012.48 659.516 2105.41 659.516 2220.06 659.516 2223.41 659.419 2226.71 659.264 2230.01 721.617 2244.2 770.871 2292.77 786.076 2354.77 797.393 2351.2 809.435 2349.24 821.946 2349.24 841.608 2349.24 860.101 2354.07 876.418 2362.55L876.55 2362.55 876.55 2362.61C897.417 2373.47 914.622 2390.38 925.923 2411L0 2411C15.007 2362.72 60.0078 2327.67 113.201 2327.67 115.874 2327.67 118.489 2327.89 121.121 2328.06 115.988 2311.87 113.201 2294.61 113.201 2276.7 113.201 2184.59 186.579 2109.69 278.03 2107.23 315.001 2050.22 379.124 2012.48 452.087 2012.48ZM1335.24 1853.86C1457.96 1853.86 1557.46 1953.41 1557.46 2076.24 1557.46 2079.82 1557.35 2083.37 1557.19 2086.9 1623.98 2102.1 1676.75 2154.13 1693.04 2220.55 1705.16 2216.73 1718.06 2214.63 1731.47 2214.63 1752.53 2214.63 1772.34 2219.8 1789.82 2228.89L1789.96 2228.89 1789.96 2228.96C1812.32 2240.59 1830.75 2258.7 1842.86 2280.79L850.922 2280.79C866.999 2229.07 915.208 2191.52 972.194 2191.52 975.057 2191.52 977.859 2191.76 980.679 2191.94 975.179 2174.6 972.194 2156.1 972.194 2136.91 972.194 2038.24 1050.8 1958 1148.77 1955.36 1188.38 1894.29 1257.07 1853.86 1335.24 1853.86ZM2429.47 1834C2563.61 1834 2672.35 1942.81 2672.35 2077.07 2672.35 2080.99 2672.24 2084.86 2672.06 2088.72L2674.86 2089.57 2679.01 2084.42C2713.88 2048.65 2762.13 2026.01 2815.67 2024.56 2858.96 1957.81 2934.04 1913.62 3019.48 1913.62 3153.62 1913.62 3262.36 2022.43 3262.36 2156.68 3262.36 2160.6 3262.25 2164.48 3262.07 2168.34 3335.08 2184.95 3392.76 2241.83 3410.56 2314.42 3423.81 2310.24 3437.91 2307.95 3452.56 2307.95 3475.58 2307.95 3497.24 2313.6 3516.34 2323.54L3516.5 2323.54 3516.5 2323.61C3540.93 2336.32 3561.08 2356.12 3574.31 2380.27L2490.11 2380.27C2498.9 2352 2516.47 2327.6 2539.62 2310.28L2554.84 2300.65 1900.1 2300.65C1917.67 2244.11 1970.37 2203.07 2032.65 2203.07 2035.78 2203.07 2038.85 2203.33 2041.93 2203.53 2035.92 2184.57 2032.65 2164.36 2032.65 2143.39 2032.65 2035.54 2118.57 1947.83 2225.66 1944.95 2268.95 1878.19 2344.03 1834 2429.47 1834Z" fill="#000060" fill-rule="evenodd"/><path d="M1930.51 1639.1C1857.83 1668.39 1763.45 1737.12 1755.93 1740.25 1748.38 1743.34 1716.06 1789.9 1779.44 1807.16 1740.02 1854.6 1579.6 1942.43 1460.82 1914.12 1490.71 1764.28 1533.14 1551.72 1560.33 1415.44L1669.02 1437.14C1674.07 1461.18 1692.94 1481.1 1718.55 1486.2 1752.82 1493.04 1786.15 1470.8 1792.99 1436.54 1799.83 1402.24 1777.59 1368.92 1743.32 1362.08 1717.71 1356.98 1692.64 1368.12 1678.76 1388.38L1570.06 1366.67C1578.32 1325.34 1584.08 1296.42 1586.07 1286.43 1639.61 1273.19 1683.49 1230.35 1695 1172.69 1710.87 1093.13 1659.24 1015.74 1579.7 999.864 1500.13 984.003 1422.75 1035.62 1406.87 1115.18 1394.76 1175.93 1422.07 1235.31 1471.04 1267.11 1468.6 1279.37 1463.19 1306.49 1455.73 1343.85L1351.01 1322.97C1345.94 1298.92 1327.07 1279.02 1301.47 1273.89 1267.2 1267.07 1233.86 1289.3 1227.03 1323.58 1220.18 1357.86 1242.43 1391.19 1276.7 1398.02 1302.31 1403.14 1327.37 1391.98 1341.28 1371.74L1446 1392.62C1418.81 1528.9 1376.39 1741.47 1346.48 1891.29 1225.92 1871.86 1111.52 1729.16 1093.32 1670.23 1158.48 1678.62 1146.49 1623.23 1140.71 1617.45 1134.96 1611.71 1074.2 1512.01 1018.32 1457.07 962.451 1402.15 967.364 1469.95 967.364 1469.95 967.364 1469.95 950.552 1565.7 942.615 1640.16 934.664 1714.62 1006.45 1689.76 1006.45 1689.76 1049.99 1910.48 1280.08 2027.84 1330.6 2063.29 1346.14 2074.16 1358.52 2078.73 1368.29 2079.9 1377.77 2082.58 1390.97 2083.11 1409.48 2079.02 1469.74 2065.68 1727.24 2045.65 1852.17 1858.55 1852.17 1858.55 1908.9 1909.05 1930.15 1837.23 1951.4 1765.44 1972.62 1670.56 1972.62 1670.56 1972.62 1670.56 2003.19 1609.83 1930.51 1639.1ZM1563.32 1081.86C1597.6 1088.71 1619.83 1122.05 1613 1156.3 1606.15 1190.6 1572.84 1212.83 1538.56 1205.99 1504.28 1199.14 1482.04 1165.82 1488.89 1131.55 1495.73 1097.27 1529.06 1075.02 1563.32 1081.86Z" fill="#010101" fill-rule="evenodd"/><path d="M2069.5 1823.7C2054.19 1823.7 2041.67 1837.85 2041.67 1855.13L2041.67 2368 2107.04 2368 2114.34 2362.43C2117.66 2360.84 2121.31 2359.95 2125.14 2359.95 2128.96 2359.95 2132.61 2360.84 2135.94 2362.43L2143.24 2368 2208.61 2368 2208.61 1861.72C2208.61 1844.42 2196.1 1830.28 2180.79 1830.28 2165.49 1830.28 2152.97 1844.42 2152.97 1861.72L2152.97 2018.03C2152.97 2035.32 2140.43 2049.46 2125.14 2049.46 2109.84 2049.46 2097.31 2035.32 2097.31 2018.03L2097.31 1855.13C2097.31 1837.85 2084.81 1823.7 2069.5 1823.7ZM3849.88 1627.57C3834.58 1627.57 3822.05 1641.72 3822.05 1659.01L3822.05 2368 3877.69 2368 3877.69 2285.54C3877.69 2268.25 3890.22 2254.1 3905.53 2254.1 3920.84 2254.1 3933.34 2268.25 3933.34 2285.54L3933.34 2368 3989 2368 3989 1748.34C3989 1731.03 3976.49 1716.9 3961.18 1716.9 3945.87 1716.9 3933.34 1731.04 3933.34 1748.34L3933.34 1796.05C3933.34 1813.34 3920.84 1827.5 3905.53 1827.5 3890.22 1827.5 3877.69 1813.34 3877.69 1796.05L3877.69 1659.01C3877.69 1641.72 3865.18 1627.57 3849.88 1627.57ZM399.831 1564.44C384.522 1564.44 372 1578.58 372 1595.88L372 2368 538.966 2368 538.966 2295.13C538.966 2277.84 551.492 2263.69 566.791 2263.69 582.09 2263.69 594.622 2277.84 594.622 2295.13L594.622 2342.85 594.644 2342.97 594.644 2368 652.298 2368 652.485 2366.96C656.725 2355.69 666.64 2347.73 678.113 2347.73 689.587 2347.73 699.505 2355.69 703.747 2366.96L703.934 2368 761.589 2368 761.589 1849.5C761.589 1832.2 749.077 1818.06 733.762 1818.06 718.463 1818.06 705.943 1832.2 705.943 1849.5L705.943 2005.81C705.943 2023.1 693.41 2037.24 678.111 2037.24 662.813 2037.24 650.286 2023.1 650.286 2005.81L650.286 1842.91 650.266 1842.8 650.266 1765.46C650.266 1748.16 637.755 1734.02 622.439 1734.02 607.141 1734.02 594.62 1748.16 594.62 1765.46L594.62 1921.77C594.62 1939.06 582.088 1953.21 566.789 1953.21 551.49 1953.21 538.964 1939.06 538.964 1921.77L538.964 1758.87C538.964 1741.59 526.458 1727.44 511.153 1727.44 495.84 1727.44 483.322 1741.59 483.322 1758.87L483.322 1933.44 483.292 1933.6 483.292 2069.68C483.292 2086.98 470.78 2101.12 455.477 2101.12 440.168 2101.12 427.646 2086.98 427.646 2069.68L427.646 1595.88C427.646 1578.58 415.13 1564.44 399.831 1564.44ZM3071.85 1529.39C3056.54 1529.39 3044.02 1543.53 3044.02 1560.83L3044.02 2368 3210.97 2368 3210.97 2281.52 3213.08 2269.82C3217.32 2258.55 3227.23 2250.59 3238.71 2250.59 3254.01 2250.59 3266.54 2264.74 3266.54 2282.03L3266.54 2329.75C3266.54 2347.04 3279.06 2361.18 3294.36 2361.18 3309.67 2361.18 3322.18 2347.03 3322.18 2329.74L3322.18 1752.36C3322.18 1735.06 3309.67 1720.92 3294.35 1720.92 3279.06 1720.92 3266.54 1735.06 3266.54 1752.36L3266.54 1908.67C3266.54 1925.96 3254 1940.1 3238.7 1940.1 3227.23 1940.1 3217.32 1932.15 3213.08 1920.87L3210.97 1909.19 3210.97 1898.55 3210.88 1898.03 3210.88 1745.77C3210.88 1728.49 3198.37 1714.34 3183.07 1714.34 3167.76 1714.34 3155.24 1728.49 3155.24 1745.77L3155.24 2035.05 3153.12 2046.84C3148.88 2058.12 3138.98 2066.07 3127.5 2066.07 3112.19 2066.07 3099.67 2051.93 3099.67 2034.63L3099.67 1560.83C3099.67 1543.53 3087.15 1529.39 3071.85 1529.39ZM1846.47 1446.69C1831.17 1446.69 1818.66 1460.83 1818.66 1478.13L1818.66 1951.93C1818.66 1969.23 1806.13 1983.37 1790.83 1983.37 1775.52 1983.37 1763.01 1969.23 1763.01 1951.93L1763.01 1815.86C1763.01 1798.55 1750.48 1784.41 1735.18 1784.41 1719.88 1784.41 1707.35 1798.55 1707.35 1815.86L1707.35 1842.47 1706.62 1846.52 1706.62 1894.23C1706.62 1911.52 1694.12 1925.68 1678.81 1925.68 1663.5 1925.68 1650.97 1911.52 1650.97 1894.23L1650.97 1757.19C1650.97 1739.91 1638.46 1725.75 1623.15 1725.75 1607.86 1725.75 1595.33 1739.9 1595.33 1757.19L1595.33 2368 1655.27 2368 1659.15 2361.52C1664.19 2355.82 1671.15 2352.28 1678.81 2352.28 1686.46 2352.28 1693.41 2355.82 1698.45 2361.52L1702.33 2368 1874.3 2368 1874.3 1478.13C1874.3 1460.84 1861.78 1446.69 1846.47 1446.69ZM3628.32 1418.96C3613.02 1418.96 3600.51 1433.1 3600.51 1450.4L3600.51 1924.2C3600.51 1941.5 3587.99 1955.64 3572.68 1955.64 3561.2 1955.64 3551.29 1947.68 3547.06 1936.41L3545 1924.97 3545 1800.63 3544.86 1799.86 3544.86 1788.12C3544.86 1770.82 3532.34 1756.67 3517.03 1756.67 3501.73 1756.67 3489.2 1770.82 3489.2 1788.12L3489.2 1938.53 3487.16 1949.88C3482.92 1961.15 3473 1969.11 3461.53 1969.11 3446.23 1969.11 3433.7 1954.96 3433.7 1937.67L3433.7 1889.95C3433.7 1872.66 3421.18 1858.52 3405.88 1858.52 3390.57 1858.52 3378.05 1872.66 3378.05 1889.95L3378.05 2368 3433.7 2368 3433.7 2311.03C3433.7 2293.75 3446.23 2279.59 3461.53 2279.59 3473 2279.59 3482.92 2287.55 3487.16 2298.83L3489.2 2310.18 3489.2 2368 3767.52 2368 3767.52 1945.1C3767.52 1927.8 3755.01 1913.66 3739.7 1913.66 3724.4 1913.66 3711.88 1927.8 3711.88 1945.1L3711.88 2101.41C3711.88 2118.7 3699.34 2132.84 3684.05 2132.84 3668.75 2132.84 3656.22 2118.7 3656.22 2101.41L3656.22 1938.51 3656.15 1938.15 3656.15 1450.4C3656.15 1433.1 3643.63 1418.96 3628.32 1418.96ZM2514.19 1413.48C2498.88 1413.48 2486.35 1427.63 2486.35 1444.93L2486.35 1650.35 2485.85 1653.16 2485.85 1790.2C2485.85 1807.49 2473.32 1821.64 2458.02 1821.64 2442.72 1821.64 2430.2 1807.49 2430.2 1790.2L2430.2 1742.48C2430.2 1725.19 2417.68 1711.05 2402.37 1711.05 2387.06 1711.05 2374.55 1725.19 2374.55 1742.48L2374.55 2319.87C2374.55 2337.17 2387.06 2351.31 2402.37 2351.31 2417.68 2351.31 2430.2 2337.17 2430.2 2319.87L2430.2 2230.54 2430.2 2163.56C2430.2 2146.28 2442.72 2132.12 2458.02 2132.12 2473.32 2132.12 2485.85 2146.28 2485.85 2163.56L2485.85 2326.46 2486.35 2329.27 2486.35 2368 2653.31 2368 2653.31 1782.65C2653.31 1765.34 2640.78 1751.2 2625.48 1751.2 2610.17 1751.2 2597.65 1765.34 2597.65 1782.65L2597.65 1918.72C2597.65 1936.02 2585.13 1950.16 2569.83 1950.16 2554.52 1950.16 2542 1936.02 2542 1918.72L2542 1444.93C2542 1427.62 2529.48 1413.48 2514.19 1413.48ZM1178.44 1357.58C1163.14 1357.58 1150.63 1371.72 1150.63 1389.02L1150.63 1862.82C1150.63 1880.12 1138.11 1894.26 1122.8 1894.26 1107.49 1894.26 1094.98 1880.12 1094.98 1862.82L1094.98 1726.74C1094.98 1709.44 1082.46 1695.29 1067.15 1695.29 1051.85 1695.29 1039.32 1709.44 1039.32 1726.74L1039.32 2028.12 1037.82 2036.45C1033.59 2047.72 1023.68 2055.68 1012.2 2055.68 996.895 2055.68 984.372 2041.54 984.372 2024.24L984.372 1550.44C984.372 1533.14 971.856 1519 956.558 1519 941.249 1519 928.726 1533.14 928.726 1550.44L928.726 2368 1095.68 2368 1095.68 2348.43 1097.18 2340.1C1101.41 2328.82 1111.32 2320.86 1122.8 2320.86 1134.28 2320.86 1144.19 2328.82 1148.43 2340.1L1150.37 2350.91 1150.37 2368 1317.32 2368 1317.32 2366.34 1318.82 2358C1323.06 2346.73 1332.98 2338.77 1344.45 2338.77 1355.93 2338.77 1365.84 2346.73 1370.09 2358L1371.89 2368 1427.93 2368 1427.93 1840.54C1427.93 1823.24 1415.42 1809.1 1400.1 1809.1 1384.8 1809.1 1372.28 1823.24 1372.28 1840.54L1372.28 1996.85C1372.28 2014.14 1359.75 2028.29 1344.45 2028.29 1332.98 2028.29 1323.06 2020.33 1318.82 2009.06L1317.32 2000.73 1317.32 1906.26 1316.63 1902.38 1316.63 1833.95C1316.63 1816.67 1304.12 1802.52 1288.81 1802.52 1273.5 1802.52 1260.98 1816.67 1260.98 1833.95L1260.98 2047.16 1259.48 2055.51C1255.24 2066.78 1245.33 2074.74 1233.85 2074.74 1222.38 2074.74 1212.46 2066.78 1208.22 2055.51L1206.27 2044.67 1206.27 1389.02C1206.27 1371.72 1193.75 1357.58 1178.44 1357.58ZM2960.12 1317C2944.82 1317 2932.3 1331.14 2932.3 1348.44L2932.3 1822.24C2932.3 1839.54 2919.78 1853.68 2904.47 1853.68 2889.17 1853.68 2876.66 1839.54 2876.66 1822.24L2876.66 1686.17C2876.66 1668.86 2864.13 1654.72 2848.83 1654.72 2833.52 1654.72 2821 1668.86 2821 1686.17L2821 2359.44 2822.54 2368 2875.12 2368 2876.66 2359.44 2876.66 2311.74C2876.66 2294.44 2889.17 2280.28 2904.47 2280.28 2919.78 2280.28 2932.3 2294.44 2932.3 2311.74L2932.3 2368 2987.95 2368 2987.95 1348.44C2987.95 1331.14 2975.43 1317 2960.12 1317Z" fill="#000045" fill-rule="evenodd"/><path d="M1919.17 1764C2105.27 1764 2256.16 1914.71 2256.16 2100.66 2256.16 2106.09 2256 2111.44 2255.74 2116.8 2281.07 2122.56 2305.06 2131.79 2327.2 2143.98L2335.15 2149.11 2338.22 2148.18C2337.99 2143.4 2337.85 2138.62 2337.85 2133.79 2337.85 1967.95 2472.4 1833.54 2638.38 1833.54 2744.1 1833.54 2836.99 1888.12 2890.56 1970.58 2973.37 1972.81 3045.95 2015.97 3088.74 2080.55L3093.45 2089.37 3123.18 2072.57C3146.3 2062.28 3171.74 2056.26 3198.51 2055.54 3241.81 1988.9 3316.89 1944.79 3402.32 1944.79 3419.09 1944.79 3435.46 1946.49 3451.27 1949.72L3458.75 1952.04 3493.36 1923.51C3537.87 1893.47 3591.53 1875.93 3649.29 1875.93 3747.4 1875.93 3833.61 1926.59 3883.32 2003.11 4006.28 2006.42 4104.94 2106.96 4104.94 2230.59 4104.94 2254.63 4101.2 2277.8 4094.29 2299.52 4097.83 2299.3 4101.35 2299 4104.94 2299 4158.58 2299 4206.02 2325.45 4234.91 2366.02L4256.44 2409.4 4399 2409.4 4399 2412 0 2412 0 2409.4 108.195 2409.4 135.231 2373.78C146.421 2362.83 159.22 2353.51 173.251 2346.23L173.251 2346.12 173.428 2346.12C195.369 2334.76 220.232 2328.25 246.665 2328.25 263.485 2328.25 279.68 2330.88 294.896 2335.7 315.338 2252.46 381.567 2187.27 465.407 2168.23 465.197 2163.79 465.067 2159.36 465.067 2154.87 465.067 2000.97 589.936 1876.24 743.965 1876.24 842.073 1876.24 928.279 1926.89 977.995 2003.42 1008.73 2004.24 1037.96 2011.15 1064.5 2022.97L1078.16 2030.7 1089.99 2016.38C1133.94 1972.47 1194.66 1945.31 1261.73 1945.31 1325.81 1945.31 1384.06 1970.13 1427.45 2010.65L1433.16 2017.46 1446.8 2000.58C1495.17 1951.03 1562.12 1919.66 1636.4 1917.66 1696.47 1825.2 1800.63 1764 1919.17 1764Z" fill="#000030" fill-rule="evenodd"/></g></svg>